PathFileType	4	(X/Y/Z)	Patient4_TMGait_0pt4_02_left_19.trc.trc
DataRate	CameraRate	NumFrames	NumMarkers	Units	OrigDataRate	OrigDataStartFrame	OrigNumFrames
76.086956521739	76.086956521739	4	33	mm	76.086956521739	53	       141
Frame#	Time	Sacral			L.Shoulder			Chest			R.Shoulder			Neck			R.ASIS			L.ASIS			R.Thigh.Superior			R.Thigh.Lateral			R.Thigh.Inferior			R.Patella			L.Thigh.Superior			L.Thigh.Lateral			L.Thigh.Inferior			L.Patella			L.Shank.Superior			L.Shank.Lateral			L.Shank.Inferior			R.Shank.Superior			R.Shank.Lateral			R.Shank.Inferior			R.Heel			R.Midfoot.Superior			R.Midfoot.Lateral			R.Toe			L.Heel			L.Midfoot.Lateral			L.Midfoot.Superior			L.Toe			L.Elbow			L.Wrist			R.Elbow			R.Wrist			
		X1	Y1	Z1	X2	Y2	Z2	X3	Y3	Z3	X4	Y4	Z4	X5	Y5	Z5	X6	Y6	Z6	X7	Y7	Z7	X8	Y8	Z8	X9	Y9	Z9	X10	Y10	Z10	X11	Y11	Z11	X12	Y12	Z12	X13	Y13	Z13	X14	Y14	Z14	X15	Y15	Z15	X16	Y16	Z16	X17	Y17	Z17	X18	Y18	Z18	X19	Y19	Z19	X20	Y20	Z20	X21	Y21	Z21	X22	Y22	Z22	X23	Y23	Z23	X24	Y24	Z24	X25	Y25	Z25	X26	Y26	Z26	X27	Y27	Z27	X28	Y28	Z28	X29	Y29	Z29	X30	Y30	Z30	X31	Y31	Z31	X32	Y32	Z32	X33	Y33	Z33	

53	26.163428571429	869.464918450678	996.819695000701	461.177256270615	1035.527877627436	1429.478571192303	264.113097897727	1139.297781925042	1369.960521288199	427.955684317123	1051.221151452806	1443.141984523422	599.958383822877	1016.510571618064	1494.376928921651	420.079097721887	1102.547405669177	946.928382978910	575.803514407359	1086.534209189060	964.863732810492	301.952884195006	1193.228124767105	778.909795169848	546.706053375653	1159.295706118895	656.409689010776	622.382601984420	1250.324396580213	621.269583198859	543.116915716083	1274.280689642552	510.000907027813	566.421214089607	1144.760823991341	752.620709711975	332.601951703239	1060.505660506515	633.941279102006	273.467575462136	1144.527044793363	558.360200815878	339.060459573142	1145.367796312650	488.482641385156	350.170685492414	1116.254885585795	414.640055659068	340.939269831517	1025.044494420347	303.743685462100	286.380969696493	1066.660769684401	190.888950627593	359.716552201012	1200.494854187516	431.865041510041	575.986815928474	1081.408287467093	390.030943686963	639.977942464278	1069.016508055837	279.781113172635	593.519050566536	871.575415161495	220.613303128630	571.251943971950	1036.928188988681	151.667347274101	607.047170381084	928.447896262173	156.572941879630	643.000359575533	1096.422436946544	35.271948007262	631.557151633794	932.331065722571	38.211389068463	395.779272645274	1006.983862245947	35.845728378851	315.534219720205	1089.520883700278	96.463148324638	345.425152588956	1218.511649404829	46.208131552837	316.077605303490	1061.298207728680	1086.668711369277	125.212638520754	1226.399612099735	881.469373650403	116.957751390381	1034.996411209390	1095.164226354433	721.898933105851	1191.684884274180	888.534338306461	702.619511394754	
54	26.176571428571	868.552506132375	997.427627827947	459.429853657546	1037.080024038152	1430.507700007267	263.935893730162	1139.101385322475	1370.461570121125	428.652142596849	1049.336956190610	1443.227047856470	599.915054681032	1016.688850384761	1495.031921195471	420.035065822363	1100.789442120349	948.180925785974	575.910851511576	1086.766332603964	965.159053010480	301.886116974217	1193.186553990389	782.011776649517	546.834088263790	1160.998018954729	659.421787388745	622.991090586535	1252.096354583811	625.141150077569	543.406765218123	1278.077941198509	514.854390712149	567.225061588324	1143.216165753733	752.106499470241	333.430119764797	1058.193898467407	634.044262025613	273.368797975946	1140.972739732504	557.769847015396	339.614742019855	1141.119189726691	487.989625743709	350.699103761952	1111.910903666022	414.372047249292	341.193005877275	1020.599008204996	303.685599476728	286.402990260136	1061.645611589252	190.744734627060	359.885513454552	1206.565884676509	435.033270705756	576.859681231289	1089.112050085631	388.776690780548	640.596602864587	1081.049561571577	278.087813009638	594.195378066587	886.154679135858	210.384450596174	571.495382148521	1053.977547767348	149.118591824154	607.626183619459	945.583332692140	149.282227982276	643.636032875531	1118.701384479733	36.136588869652	632.942284420006	926.998312534457	38.204684912651	395.749594344810	1001.696443108914	35.846484425359	315.519954402700	1084.250565102922	96.448579295826	345.472148197695	1213.228876794270	46.181495600356	316.094862478816	1067.630177713904	1089.389422820507	122.620743366031	1241.111135962992	891.112830003528	114.726549285434	1025.453624490874	1095.103867159611	720.427435580656	1167.835179050636	877.313297630864	706.798556144953	
55	26.189714285714	867.634413024517	998.094926867525	457.762805509455	1038.903443000401	1431.543488666516	263.920835899384	1139.085178253110	1370.880123461184	429.507762134475	1047.663396987647	1443.318723306828	599.977370293091	1017.042317494601	1495.681275794691	420.125245272090	1098.945091573774	949.364552531199	576.169681423458	1087.010184163857	965.423729485486	301.971630390723	1192.776108602383	784.773765921342	547.098036817850	1162.058692774578	662.108248830815	623.689621524124	1253.053242444383	628.482761524598	543.760096430665	1280.906730059562	519.430435975375	568.115210619919	1141.520227694971	751.591637351268	334.479203470185	1055.769557431813	634.183634510385	273.320821680072	1137.234051105412	557.205454382444	340.237721472538	1136.656624813500	487.522433475199	351.256470294465	1107.399875144757	414.141274032319	341.458752635881	1016.029359045702	303.636751902534	286.433090292813	1056.565353921827	190.619334744141	360.042552202696	1212.129600820718	437.862509287951	577.852283476715	1096.833385568403	386.564489022527	641.387903495808	1093.762413536105	275.598265775695	595.023746223838	902.212886962927	198.241084208058	571.813995470335	1072.508403557348	146.000113025216	608.546968232552	964.411122801259	140.765719807612	644.502211528722	1143.034446713275	37.208032683862	634.932037005532	921.670031902997	38.194585448797	395.723856538490	996.405120371504	35.841483909137	315.509564146161	1078.974830183183	96.432090396447	345.519253325362	1207.944976302549	46.152425107615	316.118644468353	1073.628901904883	1092.147510227550	120.304213811292	1255.224319226171	901.156117528551	112.942038703583	1016.269692150983	1095.326877924236	719.163251657899	1143.800673025267	867.726315598935	710.986921253833	
56	26.202857142857	866.723556000593	998.803014116032	456.181433410344	1040.976802146378	1432.545459295735	264.072908001290	1139.246562261602	1371.194531227601	430.521094435500	1046.214880621352	1443.402315469855	600.153753958414	1017.565978727679	1496.298365857504	420.352722760101	1097.038617730014	950.432866853546	576.572676440299	1087.264991893695	965.646529161098	302.202698120496	1191.979244708924	787.109100083447	547.492204804304	1162.407898069649	664.379087529733	624.461203710674	1253.157866757942	631.197197132344	544.195060515680	1282.708881005297	523.635001829662	569.061916472930	1139.686454096206	751.065901623817	335.679814170703	1053.245245440273	634.349067203147	273.304495421402	1133.344487404107	556.663217311242	340.886195369151	1132.022069494248	487.078944230442	351.810554091501	1102.757028147468	413.937762317202	341.717107331156	1011.359427561504	303.591630263687	286.458525363814	1051.433990329967	190.506925775527	360.181126781880	1217.129665780181	440.327725584440	578.932685528262	1104.600855952289	383.504792651795	642.371989400773	1107.084993054628	272.505334668779	596.008741268849	919.795209647513	184.651760929461	572.339036498207	1092.377737640817	142.599237447588	609.785917346919	984.897191899036	131.409864198117	645.622937360273	1169.057216719154	38.675990804383	637.297478376815	916.350200175225	38.180775697896	395.699959688975	991.111611933219	35.830308269694	315.501736487904	1073.695734791988	96.412081674485	345.564568470308	1202.661949950046	46.117130584102	316.146375037880	1079.329645405462	1094.880102888035	118.263073837264	1268.697584923113	911.477494174287	111.595194906887	1007.411962379748	1095.813852557134	718.115783025703	1119.852181779450	859.832028730126	715.134066090261	
